<svg width="100" height="100" viewBox="0 0 100 100" fill="none" xmlns="http://www.w3.org/2000/svg">
<rect width="100" height="100" rx="50" fill="#C6FF2E"/>
<path d="M69.9889 58.5496C69.9889 57.9973 69.5412 57.5496 68.9889 57.5496H57.5283C57.5103 57.5496 57.4958 57.5351 57.4958 57.5171C57.4919 56.2076 56.9699 54.9528 56.0439 54.0268C55.1179 53.1008 53.8631 52.5788 52.5535 52.5748C52.5111 52.5748 52.4818 52.5326 52.4965 52.4928L61.7554 27.544C61.9475 27.0263 61.6836 26.4508 61.1659 26.2586L58.7133 25.3481C58.1955 25.1559 57.6199 25.4198 57.4277 25.9377L47.5777 52.4835C47.5573 52.5384 47.5049 52.5748 47.4463 52.5748C46.1368 52.5788 44.882 53.1008 43.956 54.0268C43.03 54.9528 42.508 56.2076 42.5041 57.5171C42.5041 57.5351 42.4895 57.5496 42.4716 57.5496H31.0109C30.4586 57.5496 30.0109 57.9973 30.0109 58.5496V61.5469C30.0109 62.0991 30.4586 62.5469 31.0109 62.5469H68.9889C69.5412 62.5469 69.9889 62.0991 69.9889 61.5469V58.5496ZM70.2658 65.6016C70.0961 65.2637 69.7503 65.0505 69.3721 65.0505H30.6277C30.2496 65.0505 29.9038 65.2637 29.7341 65.6016L25.7414 73.5512C25.4074 74.2162 25.8908 75 26.635 75H73.3649C74.1091 75 74.5925 74.2162 74.2585 73.5512L70.2658 65.6016Z" fill="#333333"/>
</svg>
