<svg width="100" height="100" viewBox="0 0 100 100" fill="none" xmlns="http://www.w3.org/2000/svg">
<rect width="100" height="100" rx="50" fill="#44D62C"/>
<path d="M73.0892 43.1958C73.1105 41.9003 72.7583 40.6261 72.0746 39.5255C71.391 38.4248 70.4049 37.5443 69.2341 36.9892C69.1366 35.7827 68.585 34.6581 67.6906 33.8424C66.7962 33.0267 65.6257 32.5808 64.4153 32.5944C64.0346 32.6251 63.659 32.7028 63.2974 32.8258C63.2187 31.9702 62.9033 31.1534 62.3865 30.467C61.8698 29.7806 61.1721 29.2517 60.3716 28.9395C59.5711 28.6273 58.6996 28.5442 57.8545 28.6995C57.0095 28.8548 56.2244 29.2424 55.5873 29.8188C55.5873 28.5408 55.0796 27.3151 54.1759 26.4114C53.2722 25.5077 52.0465 25 50.7685 25C49.4904 25 48.2647 25.5077 47.361 26.4114C46.4573 27.3151 45.9496 28.5408 45.9496 29.8188C45.9496 29.8188 46.1038 29.8959 46.1038 30.0116C45.4674 29.4657 44.6967 29.0999 43.8714 28.952C43.046 28.8042 42.1962 28.8796 41.4099 29.1706C40.6235 29.4615 39.9293 29.9574 39.399 30.6068C38.8686 31.2563 38.5216 32.0357 38.3938 32.8643C37.7834 32.6704 37.145 32.5792 36.5048 32.5944C35.5512 32.5865 34.6104 32.8145 33.7662 33.2581C32.9221 33.7018 32.2008 34.3473 31.6665 35.1373C31.1322 35.9272 30.8016 36.837 30.7042 37.7856C30.6067 38.7343 30.7453 39.6923 31.1077 40.5744C29.9001 40.9119 28.8361 41.6353 28.0782 42.6342C27.3202 43.6331 26.9099 44.8525 26.9099 46.1064C26.9099 47.3603 27.3202 48.5797 28.0782 49.5786C28.8361 50.5775 29.9001 51.3009 31.1077 51.6384C31.5055 52.868 32.3063 53.9275 33.3807 54.6456C34.4551 55.3638 35.7403 55.6987 37.0285 55.5962C38.3168 55.4936 39.5328 54.9597 40.4801 54.0806C41.4273 53.2016 42.0505 52.0287 42.2488 50.7517C42.9543 51.3685 43.8294 51.754 44.7546 51.8697V71.145L38.3938 75H57.669L51.5009 71.145V63.4348C54.3462 59.9979 58.0218 57.3441 62.1794 55.7248C63.0317 55.9247 63.9184 55.9272 64.7717 55.732C65.6251 55.5369 66.4226 55.1492 67.1033 54.5987C67.7839 54.0483 68.3298 53.3495 68.6991 52.5558C69.0684 51.7621 69.2514 50.8945 69.2341 50.0193C69.2424 49.8138 69.2424 49.608 69.2341 49.4025C70.4049 48.8474 71.391 47.9669 72.0746 46.8662C72.7583 45.7656 73.1105 44.4913 73.0892 43.1958ZM51.5009 60.5821V47.3207C52.5418 49.1712 54.5001 50.3238 56.6281 50.3277H57.7076C57.7692 52.0239 58.5711 53.6006 59.9049 54.6453C56.7625 56.091 53.9136 58.1035 51.5009 60.5821Z" fill="white"/>
</svg>
