<svg width="100" height="100" viewBox="0 0 100 100" fill="none" xmlns="http://www.w3.org/2000/svg">
<rect width="100" height="100" rx="50" fill="#FFF300"/>
<path fill-rule="evenodd" clip-rule="evenodd" d="M49.7199 74.95C49.9083 75.0167 50.0958 75.0167 50.2824 74.95C52.71 74.125 70 67.545 70 48.1324V30.7599C70.0005 30.5364 69.9262 30.3193 69.7889 30.143C69.6516 29.9668 69.4593 29.8415 69.2425 29.7874L50.2424 25.0298C50.0832 24.9901 49.9167 24.9901 49.7574 25.0298L30.7574 29.7874C30.5406 29.8415 30.3483 29.9668 30.211 30.143C30.0737 30.3193 29.9994 30.5364 29.9999 30.7599V48.1299C29.9999 67.3475 47.2974 74.0975 49.7199 74.95ZM49.9999 37.4999C50.663 37.4999 51.2989 37.7633 51.7677 38.2321C52.2366 38.701 52.5 39.3369 52.5 39.9999V44.9999H57.5C58.163 44.9999 58.7989 45.2633 59.2677 45.7321C59.7366 46.201 60 46.8369 60 47.4999C60 48.163 59.7366 48.7988 59.2677 49.2677C58.7989 49.7365 58.163 49.9999 57.5 49.9999H52.5V54.9999C52.5 55.663 52.2366 56.2989 51.7677 56.7677C51.2989 57.2366 50.663 57.4999 49.9999 57.4999C49.3369 57.4999 48.701 57.2366 48.2322 56.7677C47.7633 56.2989 47.4999 55.663 47.4999 54.9999V49.9999H42.4999C41.8369 49.9999 41.201 49.7365 40.7321 49.2677C40.2633 48.7988 39.9999 48.163 39.9999 47.4999C39.9999 46.8369 40.2633 46.201 40.7321 45.7321C41.201 45.2633 41.8369 44.9999 42.4999 44.9999H47.4999V39.9999C47.4999 39.3369 47.7633 38.701 48.2322 38.2321C48.701 37.7633 49.3369 37.4999 49.9999 37.4999Z" fill="#333333"/>
</svg>
