<svg width="100" height="99" viewBox="0 0 100 99" fill="none" xmlns="http://www.w3.org/2000/svg">
<rect width="100" height="98.7207" rx="49.3604" fill="#FF3087"/>
<path d="M39.3673 37.5645C36.8483 34.6921 36.8483 30.0268 39.3673 27.1543C41.8863 24.2819 45.9647 24.2819 48.4837 27.1543L50.0002 28.8894L51.5168 27.1543C54.0358 24.2819 58.1142 24.2819 60.6332 27.1543C63.1522 30.0268 63.1522 34.6921 60.6332 37.5645L51.9281 47.5121C51.3968 48.1193 50.7028 48.4181 50.0002 48.4181C49.2977 48.4181 48.6037 48.1193 48.0724 47.5121L39.3673 37.5645ZM74.008 56.7848C75.1304 58.5006 74.8048 60.9104 73.2797 62.1731L62.4325 71.1663C60.4276 72.8243 58.0114 73.7207 55.5181 73.7207H28.066C26.5495 73.7207 25.3242 72.3423 25.3242 70.6362V64.4672C25.3242 62.7611 26.5495 61.3827 28.066 61.3827H31.219L35.0661 57.9126C37.0111 56.1583 39.4273 55.2137 41.9206 55.2137H55.4838C57.0004 55.2137 58.2256 56.5921 58.2256 58.2982C58.2256 60.0043 57.0004 61.3827 55.4838 61.3827H48.6294C47.8754 61.3827 47.2585 62.0767 47.2585 62.9249C47.2585 63.7732 47.8754 64.4672 48.6294 64.4672H58.9624L69.2184 55.9655C70.7435 54.7028 72.8856 55.0691 74.008 56.7848Z" fill="white"/>
</svg>
